<?xml version="1.0" encoding="UTF-8"?>
<svg id="Layer_2" data-name="Layer 2" xmlns="http://www.w3.org/2000/svg" viewBox="0 0 228.19 290.8">
  <defs>
    <style>
      .cls-1 {
        fill: #e19a3a;
      }

      .cls-1, .cls-2, .cls-3, .cls-4, .cls-5, .cls-6 {
        stroke-width: 0px;
      }

      .cls-7 {
        fill: #171445;
        font-family: SansSerifCollection, 'Sans Serif Collection';
        font-size: 47px;
        stroke: #171445;
        stroke-miterlimit: 10;
        stroke-width: 2px;
      }

      .cls-2 {
        fill: #fff;
      }

      .cls-3 {
        fill: #2e3192;
      }

      .cls-4 {
        fill: #fbb040;
      }

      .cls-5 {
        fill: #26225c;
      }

      .cls-6 {
        fill: #2b2d6f;
      }
    </style>
  </defs>
  <g id="New_Logo" data-name="New Logo">
    <g>
      <path class="cls-3" d="m179.55,48.54v118.44h-38.15c-2.76,0-5-2.46-5-5.5v-56.25c0-2.17-1.6-3.92-3.58-3.92h-36.27c-1.98,0-3.58,1.76-3.58,3.92v56.25c0,3.03-2.24,5.5-5,5.5h-48.08c-9.17,0-16.6-8.17-16.6-18.24V48.54h156.26Z"/>
      <path class="cls-4" d="m205.08,48.54v100.2c0,10.07-7.43,18.24-16.6,18.24h-8.93V48.54h25.53Z"/>
    </g>
    <text class="cls-7" transform="translate(3.25 207.31)"><tspan x="0" y="0">HANOUTI</tspan></text>
    <g id="Tinda_down" data-name="Tinda down">
      <g>
        <path class="cls-6" d="m53.3,30.15v23.73c-7.96,11.53-17.52,17.48-27.64,17.18-.2-.01-.4-.01-.6-.03-.59-.02-1.18-.08-1.77-.15-5.75-.73-11.23-3.5-16.33-8.27C2.54,58.46,0,52.59,0,46.51v-16.36h53.3Z"/>
        <path class="cls-2" d="m58.3,30.15v25.38l-.53.68c-.07.1-.19.27-.35.5-.03.05-.07.1-.1.14-.5.73-1.01,1.43-1.53,2.11-10.48,13.96-21.57,17.11-29.43,17.11-.28,0-.56,0-.84-.01-.75-.02-1.49-.07-2.23-.16v-5.02c.59.07,1.18.13,1.77.15.2.02.4.02.6.03,10.12.3,19.68-5.65,27.64-17.18v-23.73h5Z"/>
      </g>
      <g>
        <path class="cls-2" d="m116.6,30.15v25.89l-.53.68c-.07.09-.18.26-.34.48-.03.04-.06.09-.09.13-.51.73-1.02,1.42-1.54,2.09-10.41,13.63-21.51,16.65-29.28,16.65h-.45c-7.45-.11-18.3-3.23-28.58-17.11-.51-.68-1.01-1.39-1.52-2.12h0c-.2-.3-.35-.51-.44-.63l-.52-.68v-.86s-.01-24.52-.01-24.52h5v23.73s.06.08.09.13c7.64,11.18,16.41,16.92,26.05,17.06,10,.12,19.4-5.62,27.16-16.69v-24.23h5Z"/>
        <path class="cls-4" d="m111.6,30.15v24.23c-7.76,11.07-17.16,16.81-27.16,16.69-9.64-.14-18.41-5.88-26.05-17.06-.03-.05-.06-.09-.09-.13v-23.73h53.3Z"/>
      </g>
      <g>
        <path class="cls-2" d="m174.9,30.15v25.63l-.52.67c-.09.11-.22.31-.4.58-.01,0-.02.03-.03.04-.5.73-1.01,1.44-1.52,2.12-10.25,13.69-21.12,16.78-28.59,16.88h-.45c-7.78.01-18.87-3.02-29.29-16.65-.51-.67-1.02-1.37-1.53-2.1-.03-.04-.06-.08-.09-.12-.16-.22-.27-.39-.35-.48l-.52-.68v-.86s-.01-25.03-.01-25.03h5v24.23c7.67,10.93,16.92,16.69,26.79,16.69h.38c6.67-.09,16.61-3.1,26.09-16.88,0-.02.03-.04.04-.06v-23.98h5Z"/>
        <path class="cls-6" d="m169.9,30.15v23.98s-.03.04-.04.06c-9.48,13.78-19.42,16.79-26.09,16.88h-.38c-9.87,0-19.12-5.76-26.79-16.69v-24.23h53.3Z"/>
      </g>
      <g>
        <path class="cls-4" d="m228.19,30.15v24c0,5.99-9.13,15.37-23.11,16.78v-.02c-.6.06-1.21.11-1.83.14-8.36.41-16.58-3.51-23.7-11.18-1.61-1.72-3.16-3.66-4.65-5.77v-23.95h53.29Z"/>
        <path class="cls-2" d="m205.08,70.93v5.03c-.52.05-1.05.08-1.58.11-.49.02-.97.03-1.46.03-7.92,0-15.62-3.2-22.49-9.24-2.49-2.19-4.88-4.75-7.12-7.67-.53-.69-1.05-1.39-1.55-2.11-.05-.06-.09-.13-.14-.19-.14-.2-.24-.34-.3-.43l-.52-.67-.02-.87v-24.77h5v23.97c1.49,2.11,3.04,4.04,4.65,5.77,7.12,7.67,15.34,11.59,23.7,11.18.62-.03,1.23-.08,1.83-.14Z"/>
      </g>
    </g>
    <g id="Tinda_Up" data-name="Tinda Up">
      <polygon class="cls-5" points="65.21 0 53.3 30.15 0 30.15 20.3 0 65.21 0"/>
      <polygon class="cls-1" points="70.21 0 111.59 0 111.59 30.15 58.3 30.15 70.21 0"/>
      <polygon class="cls-5" points="159.06 0 169.9 30.15 116.59 30.15 116.59 0 159.06 0"/>
      <polygon class="cls-1" points="228.19 30.15 174.9 30.15 164.06 0 206.21 0 228.19 30.15"/>
      <g id="stripes">
        <polygon class="cls-2" points="58.3 30.15 53.3 30.15 65.21 0 70.21 0 58.3 30.15"/>
        <rect class="cls-2" x="111.6" width="5" height="30.15"/>
        <polygon class="cls-2" points="164.06 0 159.06 0 169.9 30.15 174.9 30.15 164.06 0"/>
      </g>
    </g>
  </g>
</svg>